<svg xmlns="http://www.w3.org/2000/svg" width="64" height="64" viewbox='0 0 64 64' fill='#fefefe' style='filter: url(#drop-shadow);'><filter id="drop-shadow">
        <feGaussianBlur in="SourceAlpha" stdDeviation="2"/>
        <feOffset dx="2" dy="2" result="offsetblur"/>
        <feFlood flood-color="rgb(0,0,0)" flood-opacity="0.5"/>
        <feComposite in2="offsetblur" operator="in"/>
        <feMerge>
            <feMergeNode/>
            <feMergeNode in="SourceGraphic"/>
        </feMerge>
    </filter><path d="M61.94 61.94H64V64h-2.06zM0 61.94h2.06V64H0zM57.8 39.23h-2.18L53.56 22.7h-8.02l-2.06 16.52H42.2L40.14 22.7h-8.02l-2.06 16.52h-2.41c-.37-.73-.81-1.4-1.32-2.03L24.86 19.6h1.98v-6.2H10.32v6.2h1.98L11 35.12a11.34 11.34 0 0 0-4.8 9.27v17.55H4.12V64h55.74v-2.06h-2.06zm-6.07-14.46l.26 2.07h-4.88l.25-2.07zm-4.88 4.13h5.4l1.29 10.33h-7.98zm-8.54-4.13l.26 2.07H33.7l.25-2.07zm-4.88 4.13h5.4l1.3 10.33h-8zM55.74 41.3v20.65h-2.06V51.6h-6.2v10.33h-2.06V51.6h-6.2v10.33h-2.06V51.6h-6.2v10.33H28.9V44.39c0-1.08-.16-2.11-.44-3.1zm-4.13 20.65h-2.06v-8.26h2.06zm-8.26 0H41.3v-8.26h2.06zm-8.25 0h-2.07v-8.26h2.07zm-22.71-44.4v-2.06h12.38v2.07h-12.3zm1.98 2.07h8.42l1.3 15.5a11.28 11.28 0 0 0-10.91-1.2zm3.18 15.49a9.3 9.3 0 0 1 8.75 6.19H8.8a9.3 9.3 0 0 1 8.75-6.2zm-9.3 9.29c0-.35.03-.7.07-1.04h18.46c.04.34.06.69.06 1.04v17.55H8.26z"/><path d="M10.32 45.42v14.45h14.45V45.42zm12.39 6.2h-4.13v-4.14h4.13zm-6.2-4.14v4.13H12.4v-4.13zm-4.12 6.2h4.13v4.13h-4.13zm6.2 4.13v-4.13h4.12v4.13zM53.68 43.35H30.97v6.2h22.7zm-12.39 2.07h2.06v2.06H41.3zm-2.06 2.06h-2.07v-2.06h2.07zm6.19-2.06h2.06v2.06h-2.06zm-12.39 0h2.07v2.06h-2.07zm18.58 2.06h-2.06v-2.06h2.06zM16.09 8.52c-1.13.52-2.67 1.23-2.67 2.83h2.06c0-.28.92-.7 1.47-.95 1.12-.52 2.66-1.22 2.66-2.83s-1.54-2.32-2.66-2.83c-.55-.25-1.47-.67-1.47-.96 0-.28.92-.7 1.47-.95C18.07 2.3 19.6 1.6 19.6 0h-2.06c0 .28-.92.7-1.46.95-1.13.52-2.67 1.22-2.67 2.83s1.54 2.32 2.67 2.83c.54.25 1.46.67 1.46.96 0 .28-.92.7-1.46.95zM22.28 6.61c.55.25 1.46.67 1.46.96 0 .28-.91.7-1.46.95-1.13.52-2.67 1.23-2.67 2.83h2.07c0-.28.91-.7 1.46-.95 1.13-.52 2.67-1.22 2.67-2.83s-1.54-2.32-2.67-2.83c-.55-.25-1.46-.67-1.46-.96 0-.28.91-.7 1.46-.95C24.27 2.3 25.81 1.6 25.81 0h-2.07c0 .28-.91.7-1.46.95-1.12.52-2.67 1.22-2.67 2.83s1.54 2.32 2.67 2.83zM37.76 17.81c-1.12.52-2.66 1.23-2.66 2.84h2.06c0-.29.92-.7 1.46-.96 1.13-.52 2.67-1.22 2.67-2.83s-1.54-2.32-2.67-2.83c-.54-.25-1.46-.67-1.46-.96 0-.28.92-.7 1.46-.95 1.13-.52 2.67-1.22 2.67-2.83h-2.06c0 .28-.92.7-1.47.95-1.12.52-2.66 1.22-2.66 2.83s1.54 2.32 2.66 2.83c.55.25 1.47.67 1.47.96 0 .28-.92.7-1.47.95zM51.18 17.81c-1.12.52-2.66 1.23-2.66 2.84h2.06c0-.29.92-.7 1.46-.96 1.13-.52 2.67-1.22 2.67-2.83s-1.54-2.32-2.67-2.83c-.54-.25-1.46-.67-1.46-.96 0-.28.92-.7 1.46-.95 1.13-.52 2.67-1.22 2.67-2.83h-2.06c0 .28-.92.7-1.47.95-1.12.52-2.66 1.22-2.66 2.83s1.54 2.32 2.66 2.83c.55.25 1.47.67 1.47.96 0 .28-.92.7-1.47.95z"/></svg>