<svg xmlns="http://www.w3.org/2000/svg" width="64" height="64"><path d="M59.62 40.76l-8.12-1.25a3.1 3.1 0 0 1-2.1-1.34l-3.96-5.94a5.15 5.15 0 0 0-4.3-2.3H8.4c-1.08 0-2.1.58-2.65 1.5A40.29 40.29 0 0 0 0 52.17v3.58a3.1 3.1 0 0 0 3.1 3.1h4.22a6.2 6.2 0 0 0 12.2 0h27.02a6.2 6.2 0 0 0 12.2 0h2.16a3.1 3.1 0 0 0 3.1-3.1v-9.87a5.13 5.13 0 0 0-4.38-5.1zm2.32 5.1v.6a2.07 2.07 0 0 1-1.64-3.32 3.07 3.07 0 0 1 1.64 2.73zM7.5 32.5c.19-.3.52-.5.88-.5h32.75c1.04 0 2 .52 2.58 1.38l3.96 5.94a5.16 5.16 0 0 0 3.5 2.23l7.02 1.08a4.13 4.13 0 0 0 3.74 5.89v4.13h-5.88a6.15 6.15 0 0 0-6.83 0H30.97v-8.26H28.9v8.26H16.84a6.15 6.15 0 0 0-6.84 0H2.06v-.5c0-6.91 1.89-13.71 5.45-19.65zm11.26 22.21H47.3a6.13 6.13 0 0 0-.74 2.06H19.52a6.16 6.16 0 0 0-.75-2.06zm-16.7 1.03v-1.03h6a6.13 6.13 0 0 0-.75 2.06H3.1c-.57 0-1.04-.46-1.04-1.03zm11.35 6.2a4.13 4.13 0 1 1 0-8.27 4.13 4.13 0 0 1 0 8.27zm39.23 0a4.13 4.13 0 1 1 0-8.27 4.13 4.13 0 0 1 0 8.27zm8.25-5.17h-2.15a6.16 6.16 0 0 0-.75-2.06h3.94v1.03c0 .57-.47 1.03-1.04 1.03z"/><path d="M45.42 43.65v6.93h2.06v-7.52l-4.7-7.54a3.08 3.08 0 0 0-2.63-1.46H28.9v8.26H44.6zm-14.45-3.4v-4.12h9.18c.35 0 .68.18.87.49l2.28 3.64zM26.84 34.06H10.78a3.1 3.1 0 0 0-2.94 2.12l-2.05 6.14h21.05zm-2.07 6.2H8.66l1.14-3.42c.14-.43.53-.71.98-.71h14z"/><path d="M33.03 44.39h4.13v2.06h-4.13zM50.58 46.45h2.07v2.07h-2.07zM12.39 56.77h2.06v2.07H12.4zM51.61 56.77h2.07v2.07H51.6z"/><path d="M32 5.11c-5.1 0-10.19 2.1-13.84 5.52a.5.5 0 0 0-.02.71l1.67 1.74c.2.2.52.22.72.02A16.65 16.65 0 0 1 32 8.62a16.9 16.9 0 0 1 11.47 4.48c.2.2.53.19.72-.02l1.67-1.74a.5.5 0 0 0-.02-.71A20.7 20.7 0 0 0 32 5.1z"/><path d="M23.07 16.45l1.8 1.77c.18.18.5.2.7.02a9.64 9.64 0 0 1 6.42-2.43c2.39 0 4.66.85 6.42 2.43.2.18.51.16.7-.02l1.79-1.77a.5.5 0 0 0-.02-.73 13.24 13.24 0 0 0-8.9-3.41c-3.43 0-6.56 1.3-8.9 3.4a.5.5 0 0 0 0 .74zM32 19.37c-1.46 0-2.78.6-3.7 1.59a.5.5 0 0 0 0 .7l3.34 3.29c.2.2.53.2.73 0l3.33-3.3c.2-.19.2-.5.01-.7a5.11 5.11 0 0 0-3.7-1.58z"/></svg>