<svg xmlns="http://www.w3.org/2000/svg" viewbox='0 0 64 64' fill='#fefefe'><path d="M44.28 0H19.72C17.12 0 15 2.32 15 5.16v7.31c.04 34.61 0-2.56 0 46.37 0 2.84 2.12 5.16 4.72 5.16h24.56c2.6 0 4.72-2.32 4.72-5.16V5.16C49 2.32 46.88 0 44.28 0zM19.72 2.06h24.56c1.56 0 2.83 1.4 2.83 3.1v3.1H16.9v-3.1c0-1.7 1.27-3.1 2.83-3.1zm27.4 8.26v43.36H16.88V10.32zm-2.84 51.62H19.72c-1.56 0-2.83-1.4-2.83-3.1v-3.1H47.1v3.1c0 1.7-1.27 3.1-2.83 3.1z"/><path d="M29.17 57.81h5.67v2.06h-5.67zM28.22 4.13h7.56v2.06h-7.56zM37.67 4.13h1.89v2.06h-1.89zM24.44 4.13h1.89v2.06h-1.89z"/></svg>